# Exported from Wings 3D 1.0.2
mtllib bigSpikeball.mtl
o sphere1
#114 vertices, 224 faces
v 6.02726406 14.55110264 2.2463982e-16
v 5.56846590 14.55110264 2.30653410
v 4.26191929 14.55110264 4.26191929
v 2.30653410 14.55110264 5.56846590
v 1.4720606e-15 14.55110264 6.02726406
v -2.30653410 14.55110264 5.56846590
v -4.26191929 14.55110264 4.26191929
v -5.56846590 14.55110264 2.30653410
v -6.02726406 14.55110264 9.6274241e-16
v -5.56846590 14.55110264 -2.30653410
v -4.26191929 14.55110264 -4.26191929
v -2.30653410 14.55110264 -5.56846590
v -4.1445799e-18 14.55110264 -6.02726406
v 2.30653410 14.55110264 -5.56846590
v 4.26191929 14.55110264 -4.26191929
v 5.56846590 14.55110264 -2.30653410
v 11.13693180 11.13693180 2.2463982e-16
v 10.28918335 11.13693180 4.26191929
v 7.87500000 11.13693180 7.87500000
v 4.26191929 11.13693180 10.28918335
v 1.7849272e-15 11.13693180 11.13693180
v -4.26191929 11.13693180 10.28918335
v -7.87500000 11.13693180 7.87500000
v -10.28918335 11.13693180 4.26191929
v -11.13693180 11.13693180 1.5884756e-15
v -10.28918335 11.13693180 -4.26191929
v -7.87500000 11.13693180 -7.87500000
v -4.26191929 11.13693180 -10.28918335
v -9.4274432e-16 11.13693180 -11.13693180
v 4.26191929 11.13693180 -10.28918335
v 7.87500000 11.13693180 -7.87500000
v 10.28918335 11.13693180 -4.26191929
v 14.55110264 6.02726406 2.2463982e-16
v 13.44346590 6.02726406 5.56846590
v 10.28918335 6.02726406 10.28918335
v 5.56846590 6.02726406 13.44346590
v 1.9939779e-15 6.02726406 14.55110264
v -5.56846590 6.02726406 13.44346590
v -10.28918335 6.02726406 10.28918335
v -13.44346590 6.02726406 5.56846590
v -14.55110264 6.02726406 2.0065771e-15
v -13.44346590 6.02726406 -5.56846590
v -10.28918335 6.02726406 -10.28918335
v -5.56846590 6.02726406 -13.44346590
v -1.5698966e-15 6.02726406 -14.55110264
v 5.56846590 6.02726406 -13.44346590
v 10.28918335 6.02726406 -10.28918335
v 13.44346590 6.02726406 -5.56846590
v 63.00000000 1.1737752e-15 2.2463982e-16
v 14.55110264 1.1737752e-15 6.02726406
v 11.13693180 1.1737752e-15 11.13693180
v 6.02726406 1.1737752e-15 14.55110264
v 2.0673868e-15 1.1737752e-15 63.00000000
v -6.02726406 1.1737752e-15 14.55110264
v -11.13693180 1.1737752e-15 11.13693180
v -14.55110264 1.1737752e-15 6.02726406
v -63.00000000 1.1737752e-15 2.1533948e-15
v -14.55110264 1.1737752e-15 -6.02726406
v -11.13693180 1.1737752e-15 -11.13693180
v -6.02726406 1.1737752e-15 -14.55110264
v -1.7901232e-15 1.1737752e-15 -63.00000000
v 6.02726406 1.1737752e-15 -14.55110264
v 11.13693180 1.1737752e-15 -11.13693180
v 14.55110264 1.1737752e-15 -6.02726406
v 14.55110264 -6.02726406 2.2463982e-16
v 13.44346590 -6.02726406 5.56846590
v 10.28918335 -6.02726406 10.28918335
v 5.56846590 -6.02726406 13.44346590
v 1.9939779e-15 -6.02726406 14.55110264
v -5.56846590 -6.02726406 13.44346590
v -10.28918335 -6.02726406 10.28918335
v -13.44346590 -6.02726406 5.56846590
v -14.55110264 -6.02726406 2.0065771e-15
v -13.44346590 -6.02726406 -5.56846590
v -10.28918335 -6.02726406 -10.28918335
v -5.56846590 -6.02726406 -13.44346590
v -1.5698966e-15 -6.02726406 -14.55110264
v 5.56846590 -6.02726406 -13.44346590
v 10.28918335 -6.02726406 -10.28918335
v 13.44346590 -6.02726406 -5.56846590
v 11.13693180 -11.13693180 2.2463982e-16
v 10.28918335 -11.13693180 4.26191929
v 7.87500000 -11.13693180 7.87500000
v 4.26191929 -11.13693180 10.28918335
v 1.7849272e-15 -11.13693180 11.13693180
v -4.26191929 -11.13693180 10.28918335
v -7.87500000 -11.13693180 7.87500000
v -10.28918335 -11.13693180 4.26191929
v -11.13693180 -11.13693180 1.5884756e-15
v -10.28918335 -11.13693180 -4.26191929
v -7.87500000 -11.13693180 -7.87500000
v -4.26191929 -11.13693180 -10.28918335
v -9.4274432e-16 -11.13693180 -11.13693180
v 4.26191929 -11.13693180 -10.28918335
v 7.87500000 -11.13693180 -7.87500000
v 10.28918335 -11.13693180 -4.26191929
v 6.02726406 -14.55110264 2.2463982e-16
v 5.56846590 -14.55110264 2.30653410
v 4.26191929 -14.55110264 4.26191929
v 2.30653410 -14.55110264 5.56846590
v 1.4720606e-15 -14.55110264 6.02726406
v -2.30653410 -14.55110264 5.56846590
v -4.26191929 -14.55110264 4.26191929
v -5.56846590 -14.55110264 2.30653410
v -6.02726406 -14.55110264 9.6274241e-16
v -5.56846590 -14.55110264 -2.30653410
v -4.26191929 -14.55110264 -4.26191929
v -2.30653410 -14.55110264 -5.56846590
v -4.1445799e-18 -14.55110264 -6.02726406
v 2.30653410 -14.55110264 -5.56846590
v 4.26191929 -14.55110264 -4.26191929
v 5.56846590 -14.55110264 -2.30653410
v 1.1030093e-15 2.0939766e-16 2.2463982e-16
v 1.1030093e-15 2.0939766e-16 2.2463982e-16
vt -2.7755576e-17 3.6031489e-2
vt 0.0000000e+0 0.33920813
vt 0.0000000e+0 0.57242451
vt 0.0000000e+0 0.71753555
vt 0.0000000e+0 0.90584518
vt 2.7755576e-17 0.11083720
vt 2.7755576e-17 0.17741471
vt 2.7755576e-17 0.24947769
vt 2.7755576e-17 0.42343466
vt 2.7755576e-17 0.51758948
vt 7.1671088e-3 0.66657933
vt 7.1671088e-3 0.76849177
vt 7.1671088e-3 0.85488896
vt 7.1671088e-3 0.95680140
vt 9.1179941e-3 0.47051207
vt 1.4672619e-2 7.2062978e-2
vt 1.4672619e-2 0.14412596
vt 1.4672619e-2 0.21618893
vt 1.4672619e-2 0.28825191
vt 2.0727650e-2 0.41955585
vt 2.0727650e-2 0.52146829
vt 2.7577308e-2 0.62338073
vt 2.7577308e-2 0.81169036
vt 2.7577308e-2 1.00000000
vt 4.3198598e-2 0.71753555
vt 4.3198598e-2 0.90584518
vt 4.7077409e-2 0.66657933
vt 4.7077409e-2 0.76849177
vt 4.7077409e-2 0.85488896
vt 4.7077409e-2 0.95680140
vt 5.8123329e-2 0.62338073
vt 5.8123329e-2 0.81169036
vt 5.8123329e-2 1.00000000
vt 9.4154818e-2 0.62338073
vt 9.4154818e-2 0.66657933
vt 9.4154818e-2 0.76849177
vt 9.4154818e-2 0.81169036
vt 9.4154818e-2 0.85488896
vt 9.4154818e-2 0.95680140
vt 9.4154818e-2 1.00000000
vt 0.13018631 0.62338073
vt 0.13018631 0.81169036
vt 0.13018631 1.00000000
vt 0.14123223 0.66657933
vt 0.14123223 0.76849177
vt 0.14123223 0.85488896
vt 0.14123223 0.95680140
vt 0.14511104 0.71753555
vt 0.14511104 0.90584518
vt 0.16073233 0.62338073
vt 0.16073233 0.81169036
vt 0.16073233 1.00000000
vt 0.18114253 0.66657933
vt 0.18114253 0.76849177
vt 0.18114253 0.85488896
vt 0.18114253 0.95680140
vt 0.18830964 0.71753555
vt 0.18830964 0.90584518
vt 0.19547675 0.66657933
vt 0.19547675 0.76849177
vt 0.19547675 0.86981369
vt 0.19547675 0.94187667
vt 0.21588694 0.62338073
vt 0.21588694 0.81169036
vt 0.21588694 0.83926767
vt 0.21588694 0.97242269
vt 0.23150823 0.71753555
vt 0.23150823 0.90584518
vt 0.23538705 0.66657933
vt 0.23538705 0.76849177
vt 0.23538705 0.88634508
vt 0.23538705 0.92534528
vt 0.24643297 0.62338073
vt 0.24643297 0.81169036
vt 0.24643297 0.81885747
vt 0.24643297 0.86981369
vt 0.24643297 0.94187667
vt 0.24643297 0.99283289
vt 0.26296435 0.85876777
vt 0.26296435 0.95292259
vt 0.28246445 0.62338073
vt 0.28246445 0.66657933
vt 0.28246445 0.76849177
vt 0.28246445 0.81169036
vt 0.28246445 0.85488896
vt 0.28246445 0.95680140
vt 0.28246445 1.00000000
vt 0.30196456 0.85876777
vt 0.30196456 0.95292259
vt 0.31849594 0.62338073
vt 0.31849594 0.81169036
vt 0.31849594 0.81885747
vt 0.31849594 0.86981369
vt 0.31849594 0.94187667
vt 0.31849594 0.99283289
vt 0.32954186 0.66657933
vt 0.32954186 0.76849177
vt 0.32954186 0.88634508
vt 0.32954186 0.92534528
vt 0.33342067 0.71753555
vt 0.33342067 0.90584518
vt 0.34904196 0.62338073
vt 0.34904196 0.81169036
vt 0.34904196 0.83926767
vt 0.34904196 0.97242269
vt 0.36945216 0.66657933
vt 0.36945216 0.76849177
vt 0.36945216 0.86981369
vt 0.36945216 0.94187667
vt 0.37661927 0.71753555
vt 0.37661927 0.81779616
vt 0.37661927 0.90584518
vt 0.38378638 0.66657933
vt 0.38378638 0.76849177
vt 0.39315066 0.81327721
vt 0.39882820 0.28825191
vt 0.39882820 0.39016435
vt 0.39882820 0.52146829
vt 0.39882820 0.62338073
vt 0.40419658 0.62338073
vt 0.40419658 0.81169036
vt 0.40998855 0.0000000e+0
vt 0.40998855 7.2062978e-2
vt 0.41043785 0.33920813
vt 0.41043785 0.57242451
vt 0.41265076 0.81169036
vt 0.41265076 0.94479026
vt 0.41867211 0.52146829
vt 0.41867211 0.62338073
vt 0.41955585 0.29213072
vt 0.41955585 0.38628554
vt 0.41955585 0.47051207
vt 0.41981787 0.71753555
vt 0.42369668 0.66657933
vt 0.42369668 0.76849177
vt 0.42466116 2.0727650e-2
vt 0.42466116 3.3288755e-2
vt 0.42466116 0.10809447
vt 0.42466116 0.18015744
vt 0.42466116 0.25222042
vt 0.42853998 5.5511151e-17
vt 0.43215086 0.81327721
vt 0.43474260 0.62338073
vt 0.43474260 0.81169036
vt 0.44868225 0.81779616
vt 0.46521364 0.81327721
vt 0.47077409 0.62338073
vt 0.47077409 0.66657933
vt 0.47077409 0.76849177
vt 0.47077409 0.81169036
vt 0.47561738 9.1179941e-3
vt 0.47561738 0.41955585
vt 0.48471374 0.81169036
vt 0.48471374 0.94479026
vt 0.50421384 0.81327721
vt 0.50680558 0.62338073
vt 0.50680558 0.81169036
vt 0.51785150 0.66657933
vt 0.51785150 0.76849177
vt 0.52074523 0.81779616
vt 0.52173031 0.71753555
vt 0.52269479 0.0000000e+0
vt 0.52657361 2.0727650e-2
vt 0.53045242 0.0000000e+0
vt 0.53727662 0.81327721
vt 0.53735160 0.62338073
vt 0.53735160 0.81169036
vt 0.55677672 0.81169036
vt 0.55677672 0.94479026
vt 0.55776180 0.66657933
vt 0.55776180 0.76849177
vt 0.56492891 0.71753555
vt 0.57209602 0.68150406
vt 0.57209602 0.75356703
vt 0.57627682 0.81327721
vt 0.57752983 9.1179941e-3
vt 0.57752983 0.41955585
vt 0.59250622 0.65095804
vt 0.59250622 0.78411306
vt 0.59280821 0.81779616
vt 0.59280821 0.93868447
vt 0.60812751 0.71753555
vt 0.60933959 0.94320342
vt 0.61200632 0.69803544
vt 0.61200632 0.73703565
vt 0.62305224 0.63054784
vt 0.62305224 0.68150406
vt 0.62305224 0.75356703
vt 0.62305224 0.80452325
vt 0.62460723 2.7755576e-17
vt 0.62848605 2.0727650e-2
vt 0.62848605 0.39882820
vt 0.62883970 0.81169036
vt 0.62883970 0.94479026
vt 0.63958363 0.67045814
vt 0.63958363 0.76461295
vt 0.64833980 0.94320342
vt 0.65908373 0.62338073
vt 0.65908373 0.66657933
vt 0.65908373 0.76849177
vt 0.65908373 0.81169036
vt 0.66438995 0.41955585
vt 0.66487118 0.93868447
vt 0.67858383 0.67045814
vt 0.67858383 0.76461295
vt 0.68140257 0.94320342
vt 0.69511522 0.63054784
vt 0.69511522 0.68150406
vt 0.69511522 0.75356703
vt 0.69511522 0.80452325
vt 0.69960769 0.41043785
vt 0.70090267 0.81169036
vt 0.70090267 0.94479026
vt 0.70616114 0.69803544
vt 0.70616114 0.73703565
vt 0.71003995 0.71753555
vt 0.72040277 0.94320342
vt 0.72566124 0.65095804
vt 0.72566124 0.78411306
vt 0.73009779 0.0000000e+0
vt 0.73693416 0.93868447
vt 0.74607144 0.68150406
vt 0.74607144 0.75356703
vt 0.75323855 0.62948652
vt 0.75323855 0.71753555
vt 0.75346555 0.94320342
vt 0.76058788 0.41043785
vt 0.76976993 0.62496757
vt 0.77296565 0.81169036
vt 0.77296565 0.94479026
vt 0.78927003 0.62338073
vt 0.78927003 0.75648063
vt 0.79246575 0.94320342
vt 0.79580562 0.41955585
vt 0.80877014 0.62496757
vt 0.80899714 0.93868447
vt 0.82530152 0.62948652
vt 0.83170953 0.12699410
vt 0.83170953 0.39882820
vt 0.84824092 0.13151305
vt 0.86774102 0.0000000e+0
vt 0.86774102 0.13309990
vt 0.88724112 0.13151305
vt 0.90377251 0.12699410
vn -0.28413515 0.95878424 1.1062181e-17
vn 8.8710900e-2 0.99537941 3.6745258e-2
vn -0.20091389 0.95878424 -0.20091389
vn 3.6745258e-2 0.99537941 8.8710900e-2
vn -6.0841998e-17 0.95878424 -0.28413515
vn -3.6745258e-2 0.99537941 8.8710900e-2
vn 0.20091389 0.95878424 -0.20091389
vn -8.8710900e-2 0.99537941 3.6745258e-2
vn 0.28413515 0.95878424 5.5310907e-18
vn -8.8710900e-2 0.99537941 -3.6745258e-2
vn 0.20091389 0.95878424 0.20091389
vn -3.6745258e-2 0.99537941 -8.8710900e-2
vn -1.1062181e-17 0.95878424 0.28413515
vn 3.6745258e-2 0.99537941 -8.8710900e-2
vn -0.20091389 0.95878424 0.20091389
vn 8.8710900e-2 0.99537941 -3.6745258e-2
vn 0.70658450 0.70762868 1.0716485e-17
vn 0.65279895 0.70762868 0.27039818
vn 0.49963069 0.70762868 0.49963069
vn 0.27039818 0.70762868 0.65279895
vn 6.2512831e-17 0.70762868 0.70658450
vn -0.27039818 0.70762868 0.65279895
vn -0.49963069 0.70762868 0.49963069
vn -0.65279895 0.70762868 0.27039818
vn -0.70658450 0.70762868 4.1079860e-17
vn -0.65279895 0.70762868 -0.27039818
vn -0.49963069 0.70762868 -0.49963069
vn -0.27039818 0.70762868 -0.65279895
vn -2.1432970e-17 0.70762868 -0.70658450
vn 0.27039818 0.70762868 -0.65279895
vn 0.49963069 0.70762868 -0.49963069
vn 0.65279895 0.70762868 -0.27039818
vn 0.52246667 0.85265971 1.5365820e-17
vn 0.70270937 0.52456787 0.48065382
vn 0.65314189 0.38315969 0.65314189
vn 0.48065382 0.52456787 0.70270937
vn 4.2256006e-17 0.85265971 0.52246667
vn -0.48065382 0.52456787 0.70270937
vn -0.65314189 0.38315969 0.65314189
vn -0.70270937 0.52456787 0.48065382
vn -0.52246667 0.85265971 3.8414551e-18
vn -0.70270937 0.52456787 -0.48065382
vn -0.65314189 0.38315969 -0.65314189
vn -0.48065382 0.52456787 -0.70270937
vn -2.6890186e-17 0.85265971 -0.52246667
vn 0.48065382 0.52456787 -0.70270937
vn 0.65314189 0.38315969 -0.65314189
vn 0.70270937 0.52456787 -0.48065382
vn 1.00000000 0.0000000e+0 0.0000000e+0
vn 0.52233325 -7.7201769e-18 0.85274145
vn 0.70710678 5.4061594e-17 0.70710678
vn 0.85274145 7.3341680e-17 0.52233325
vn 1.4087559e-17 0.0000000e+0 1.00000000
vn -0.85274145 7.7201769e-17 0.52233325
vn -0.70710678 5.4061594e-17 0.70710678
vn -0.52233325 -1.1580265e-17 0.85274145
vn -1.00000000 0.0000000e+0 1.4087559e-17
vn -0.52233325 -7.7201769e-18 -0.85274145
vn -0.70710678 5.4061594e-17 -0.70710678
vn -0.85274145 7.3341680e-17 -0.52233325
vn 0.0000000e+0 4.2262677e-17 -1.00000000
vn 0.85274145 7.3341680e-17 -0.52233325
vn 0.70710678 5.4061594e-17 -0.70710678
vn 0.52233325 -7.7201769e-18 -0.85274145
vn 0.52246667 -0.85265971 1.5365820e-17
vn 0.70270937 -0.52456787 0.48065382
vn 0.65314189 -0.38315969 0.65314189
vn 0.48065382 -0.52456787 0.70270937
vn 3.8414551e-17 -0.85265971 0.52246667
vn -0.48065382 -0.52456787 0.70270937
vn -0.65314189 -0.38315969 0.65314189
vn -0.70270937 -0.52456787 0.48065382
vn -0.52246667 -0.85265971 1.5365820e-17
vn -0.70270937 -0.52456787 -0.48065382
vn -0.65314189 -0.38315969 -0.65314189
vn -0.48065382 -0.52456787 -0.70270937
vn -3.8414551e-17 -0.85265971 -0.52246667
vn 0.48065382 -0.52456787 -0.70270937
vn 0.65314189 -0.38315969 -0.65314189
vn 0.70270937 -0.52456787 -0.48065382
vn 0.70658450 -0.70762868 3.5721617e-18
vn 0.65279895 -0.70762868 0.27039818
vn 0.49963069 -0.70762868 0.49963069
vn 0.27039818 -0.70762868 0.65279895
vn 5.7154588e-17 -0.70762868 0.70658450
vn -0.27039818 -0.70762868 0.65279895
vn -0.49963069 -0.70762868 0.49963069
vn -0.65279895 -0.70762868 0.27039818
vn -0.70658450 -0.70762868 5.0010264e-17
vn -0.65279895 -0.70762868 -0.27039818
vn -0.49963069 -0.70762868 -0.49963069
vn -0.27039818 -0.70762868 -0.65279895
vn -2.8577294e-17 -0.70762868 -0.70658450
vn 0.27039818 -0.70762868 -0.65279895
vn 0.49963069 -0.70762868 -0.49963069
vn 0.65279895 -0.70762868 -0.27039818
vn -0.28413515 -0.95878424 1.1062181e-17
vn 8.8710900e-2 -0.99537941 3.6745258e-2
vn -0.20091389 -0.95878424 -0.20091389
vn 3.6745258e-2 -0.99537941 8.8710900e-2
vn -6.6373089e-17 -0.95878424 -0.28413515
vn -3.6745258e-2 -0.99537941 8.8710900e-2
vn 0.20091389 -0.95878424 -0.20091389
vn -8.8710900e-2 -0.99537941 3.6745258e-2
vn 0.28413515 -0.95878424 2.2124363e-17
vn -8.8710900e-2 -0.99537941 -3.6745258e-2
vn 0.20091389 -0.95878424 0.20091389
vn -3.6745258e-2 -0.99537941 -8.8710900e-2
vn -1.1062181e-17 -0.95878424 0.28413515
vn 3.6745258e-2 -0.99537941 -8.8710900e-2
vn -0.20091389 -0.95878424 0.20091389
vn 8.8710900e-2 -0.99537941 -3.6745258e-2
vn -5.5307520e-17 1.00000000 -1.3365984e-16
vn -1.8435840e-17 -1.00000000 -1.4287776e-16
g sphere1_sphere1_auv
usemtl sphere1_auv
f 1/101/1 17/112/17 16/99/16
f 1/230/1 113/229/113 2/233/2
f 2/98/2 17/112/17 1/101/1
f 2/98/2 19/104/19 18/108/18
f 2/233/2 113/229/113 3/236/3
f 3/93/3 19/104/19 2/98/2
f 3/203/3 113/212/113 4/206/4
f 4/88/4 19/104/19 3/93/3
f 4/88/4 21/84/21 20/92/20
f 4/206/4 113/212/113 5/213/5
f 5/85/5 21/84/21 4/88/4
f 5/213/5 113/212/113 6/217/6
f 6/79/6 21/84/21 5/85/5
f 6/79/6 23/65/23 22/75/22
f 6/217/6 113/212/113 7/221/7
f 7/76/7 23/65/23 6/79/6
f 7/181/7 113/193/113 8/183/8
f 8/71/8 23/65/23 7/76/7
f 8/71/8 25/58/25 24/61/24
f 8/183/8 113/193/113 9/194/9
f 9/68/9 25/58/25 8/71/8
f 9/194/9 113/193/113 10/197/10
f 10/72/10 25/58/25 9/68/9
f 10/72/10 27/66/27 26/62/26
f 10/197/10 113/193/113 11/203/11
f 11/77/11 27/66/27 10/72/10
f 11/238/11 113/241/113 12/240/12
f 12/80/12 27/66/27 11/77/11
f 12/80/12 29/87/29 28/78/28
f 12/240/12 113/241/113 13/242/13
f 13/86/13 29/87/29 12/80/12
f 13/242/13 113/241/113 14/243/14
f 14/89/14 29/87/29 13/86/13
f 14/89/14 31/105/31 30/95/30
f 14/243/14 113/241/113 15/244/15
f 15/94/15 31/105/31 14/89/14
f 15/221/15 113/229/113 16/226/16
f 16/99/16 17/112/17 32/109/32
f 16/99/16 31/105/31 15/94/15
f 16/226/16 113/229/113 1/230/1
f 17/84/17 34/70/34 33/83/33
f 17/84/17 48/97/48 32/91/32
f 18/108/18 17/112/17 2/98/2
f 18/74/18 34/70/34 17/84/17
f 19/64/19 34/70/34 18/74/18
f 19/51/19 36/45/36 35/54/35
f 20/92/20 19/104/19 4/88/4
f 20/42/20 36/45/36 19/51/19
f 21/37/21 36/45/36 20/42/20
f 21/37/21 38/28/38 37/36/37
f 22/75/22 21/84/21 6/79/6
f 22/32/22 38/28/38 21/37/21
f 23/23/23 38/28/38 22/32/22
f 23/167/23 40/159/40 39/171/39
f 24/61/24 23/65/23 8/71/8
f 24/157/24 40/159/40 23/167/23
f 25/150/25 40/159/40 24/157/24
f 25/150/25 42/135/42 41/149/41
f 26/62/26 25/58/25 10/72/10
f 26/144/26 42/135/42 25/150/25
f 27/121/27 42/135/42 26/144/26
f 27/52/27 44/47/44 43/56/43
f 28/78/28 27/66/27 12/80/12
f 28/43/28 44/47/44 27/52/27
f 29/40/29 44/47/44 28/43/28
f 29/40/29 46/30/46 45/39/45
f 30/95/30 29/87/29 14/89/14
f 30/33/30 46/30/46 29/40/29
f 31/24/31 46/30/46 30/33/30
f 31/103/31 48/97/48 47/107/47
f 32/109/32 31/105/31 16/99/16
f 32/91/32 48/97/48 31/103/31
f 33/83/33 48/97/48 17/84/17
f 33/15/33 49/132/49 48/10/48
f 34/9/34 49/132/49 33/15/33
f 34/70/34 51/57/51 50/67/50
f 35/60/35 34/70/34 19/64/19
f 35/60/35 51/57/51 34/70/34
f 36/45/36 51/57/51 35/54/35
f 36/129/36 53/3/53 52/125/52
f 37/36/37 36/45/36 21/37/21
f 37/119/37 53/3/53 36/129/36
f 38/202/38 53/220/53 37/211/37
f 38/28/38 55/4/55 54/25/54
f 39/12/39 38/28/38 23/23/23
f 39/12/39 55/4/55 38/28/38
f 40/159/40 55/172/55 39/171/39
f 40/130/40 57/2/57 56/116/56
f 41/149/41 40/159/40 25/150/25
f 41/124/41 57/2/57 40/130/40
f 42/131/42 57/2/57 41/124/41
f 42/135/42 59/110/59 58/133/58
f 43/114/43 42/135/42 27/121/27
f 43/114/43 59/110/59 42/135/42
f 44/47/44 59/58/59 43/56/43
f 44/164/44 61/177/61 60/163/60
f 45/39/45 44/47/44 29/40/29
f 45/176/45 61/177/61 44/164/44
f 46/190/46 61/177/61 45/176/45
f 46/30/46 63/5/63 62/26/62
f 47/14/47 46/30/46 31/24/31
f 47/14/47 63/5/63 46/30/46
f 48/10/48 49/132/49 64/21/64
f 48/97/48 63/110/63 47/107/47
f 49/139/49 66/7/66 65/17/65
f 49/1/49 80/137/80 64/123/64
f 50/20/50 49/132/49 34/9/34
f 50/18/50 66/7/66 49/139/49
f 51/57/51 66/69/66 50/67/50
f 51/57/51 68/44/68 67/53/67
f 52/48/52 51/57/51 36/45/36
f 52/48/52 68/44/68 51/57/51
f 53/3/53 68/128/68 52/125/52
f 53/220/53 70/234/70 69/227/69
f 54/192/54 53/220/53 38/202/38
f 54/239/54 70/234/70 53/220/53
f 55/4/55 70/27/70 54/25/54
f 55/172/55 72/158/72 71/170/71
f 56/161/56 55/172/55 40/159/40
f 56/161/56 72/158/72 55/172/55
f 57/138/57 72/6/72 56/16/56
f 57/140/57 74/8/74 73/18/73
f 58/117/58 57/2/57 42/131/42
f 58/19/58 74/8/74 57/140/57
f 59/110/59 74/134/74 58/133/58
f 59/58/59 76/46/76 75/55/75
f 60/49/60 59/58/59 44/47/44
f 60/49/60 76/46/76 59/58/59
f 61/152/61 76/162/76 60/163/60
f 61/152/61 78/141/78 77/151/77
f 62/191/62 61/177/61 46/190/46
f 62/136/62 78/141/78 61/152/61
f 63/5/63 78/29/78 62/26/62
f 63/110/63 80/96/80 79/106/79
f 64/100/64 63/110/63 48/97/48
f 64/100/64 80/96/80 63/110/63
f 65/122/65 80/137/80 49/1/49
f 65/82/65 81/81/81 80/96/80
f 66/69/66 81/81/81 65/82/65
f 66/69/66 83/63/83 82/73/82
f 67/59/67 66/69/66 51/57/51
f 67/59/67 83/63/83 66/69/66
f 68/44/68 83/50/83 67/53/67
f 68/44/68 85/34/85 84/41/84
f 69/118/69 68/128/68 53/3/53
f 69/35/69 85/34/85 68/44/68
f 70/27/70 85/34/85 69/35/69
f 70/27/70 87/22/87 86/31/86
f 71/11/71 70/27/70 55/4/55
f 71/11/71 87/22/87 70/27/70
f 72/158/72 87/166/87 71/170/71
f 72/158/72 89/147/89 88/156/88
f 73/17/73 72/6/72 57/138/57
f 73/148/73 89/147/89 72/158/72
f 74/134/74 89/147/89 73/148/73
f 74/134/74 91/120/91 90/143/90
f 75/113/75 74/134/74 59/110/59
f 75/113/75 91/120/91 74/134/74
f 76/46/76 91/51/91 75/55/75
f 76/46/76 93/37/93 92/42/92
f 77/151/77 76/162/76 61/152/61
f 77/38/77 93/37/93 76/46/76
f 78/29/78 93/37/93 77/38/77
f 78/29/78 95/23/95 94/32/94
f 79/13/79 78/29/78 63/5/63
f 79/13/79 95/23/95 78/29/78
f 80/96/80 81/81/81 96/90/96
f 80/96/80 95/102/95 79/106/79
f 81/172/81 98/184/98 97/182/97
f 81/172/81 112/185/112 96/174/96
f 82/73/82 81/81/81 66/69/66
f 82/173/82 98/184/98 81/172/81
f 83/178/83 98/184/98 82/173/82
f 83/178/83 100/195/100 99/187/99
f 84/41/84 83/50/83 68/44/68
f 84/186/84 100/195/100 83/178/83
f 85/198/85 100/195/100 84/186/84
f 85/198/85 102/204/102 101/199/101
f 86/31/86 85/34/85 70/27/70
f 86/207/86 102/204/102 85/198/85
f 87/218/87 102/204/102 86/207/86
f 87/218/87 104/214/104 103/208/103
f 88/156/88 87/166/87 72/158/72
f 88/222/88 104/214/104 87/218/87
f 89/225/89 104/214/104 88/222/88
f 89/225/89 106/215/106 105/216/105
f 90/143/90 89/147/89 74/134/74
f 90/223/90 106/215/106 89/225/89
f 91/219/91 106/215/106 90/223/90
f 91/219/91 108/205/108 107/209/107
f 92/42/92 91/51/91 76/46/76
f 92/210/92 108/205/108 91/219/91
f 93/201/93 108/205/108 92/210/92
f 93/201/93 110/196/110 109/200/109
f 94/32/94 93/37/93 78/29/78
f 94/189/94 110/196/110 93/201/93
f 95/179/95 110/196/110 94/189/94
f 95/179/95 112/185/112 111/188/111
f 96/90/96 95/102/95 80/96/80
f 96/174/96 112/185/112 95/179/95
f 97/182/97 112/185/112 81/172/81
f 97/126/97 114/127/114 112/115/112
f 98/142/98 114/127/114 97/126/97
f 99/187/99 98/184/98 83/178/83
f 99/145/99 114/127/114 98/142/98
f 100/228/100 114/232/114 99/224/99
f 101/199/101 100/195/100 85/198/85
f 101/231/101 114/232/114 100/228/100
f 102/235/102 114/232/114 101/231/101
f 103/208/103 102/204/102 87/218/87
f 103/237/103 114/232/114 102/235/102
f 104/146/104 114/154/114 103/145/103
f 105/216/105 104/214/104 89/225/89
f 105/153/105 114/154/114 104/146/104
f 106/155/106 114/154/114 105/153/105
f 107/209/107 106/215/106 91/219/91
f 107/160/107 114/154/114 106/155/106
f 108/165/108 114/169/114 107/160/107
f 109/200/109 108/205/108 93/201/93
f 109/168/109 114/169/114 108/165/108
f 110/175/110 114/169/114 109/168/109
f 111/188/111 110/196/110 95/179/95
f 111/180/111 114/169/114 110/175/110
f 112/115/112 114/127/114 111/111/111
